<?xml version="1.0" encoding="UTF-8" standalone="no"?>
<!-- Generated by graphviz version 2.40.1 (20161225.0304)
 -->

<!-- Title: graph Pages: 1 -->

<svg
   xmlns:dc="http://purl.org/dc/elements/1.1/"
   xmlns:cc="http://creativecommons.org/ns#"
   xmlns:rdf="http://www.w3.org/1999/02/22-rdf-syntax-ns#"
   xmlns:svg="http://www.w3.org/2000/svg"
   xmlns="http://www.w3.org/2000/svg"
   xmlns:sodipodi="http://sodipodi.sourceforge.net/DTD/sodipodi-0.dtd"
   xmlns:inkscape="http://www.inkscape.org/namespaces/inkscape"
   width="357pt"
   height="363pt"
   viewBox="0.00 0.00 356.86 362.58"
   version="1.1"
   id="svg219"
   sodipodi:docname="example-graph.svg"
   inkscape:version="0.92.3 (2405546, 2018-03-11)">
  <metadata
     id="metadata225">
    <rdf:RDF>
      <cc:Work
         rdf:about="">
        <dc:format>image/svg+xml</dc:format>
        <dc:type
           rdf:resource="http://purl.org/dc/dcmitype/StillImage" />
        <dc:title></dc:title>
      </cc:Work>
    </rdf:RDF>
  </metadata>
  <defs
     id="defs223" />
  <sodipodi:namedview
     pagecolor="#ffffff"
     bordercolor="#666666"
     borderopacity="1"
     objecttolerance="10"
     gridtolerance="10"
     guidetolerance="10"
     inkscape:pageopacity="0"
     inkscape:pageshadow="2"
     inkscape:window-width="1920"
     inkscape:window-height="1025"
     id="namedview221"
     showgrid="false"
     inkscape:zoom="1.4404297"
     inkscape:cx="50.259948"
     inkscape:cy="226.24788"
     inkscape:window-x="0"
     inkscape:window-y="27"
     inkscape:window-maximized="1"
     inkscape:current-layer="svg219" />
  <polygon
     style="fill:#ffffff"
     id="polygon4"
     points="352.8572,-358.5802 352.8572,4 -4,4 -4,-358.5802 "
     stroke="transparent"
     transform="translate(4,358.5802)" />
  <text
     style="font-size:14px;font-family:Times, serif;text-anchor:middle;fill:#000000"
     id="text6"
     font-size="14.00"
     y="350.78021"
     x="178.4286">Contraint graph</text>
  <g
     class="edge"
     id="edge1"
     transform="translate(4,358.5802)">
    <title
       id="title8">%3-&gt;%3</title>
    <path
       style="fill:none;stroke:#000000;stroke-width:2"
       inkscape:connector-curvature="0"
       id="path10"
       d="m 221.2245,-341.1346 c 19.5204,-5.8008 39.6705,-0.9668 39.6705,14.502 0,12.81 -13.8187,18.3268 -29.655,16.5505" />
    <polygon
       style="fill:#000000;stroke:#000000;stroke-width:2"
       id="polygon12"
       points="231.723,-313.5557 230.3203,-306.6977 221.2245,-312.1307 " />
  </g>
  <g
     class="edge"
     id="edge2"
     transform="translate(4,358.5802)">
    <title
       id="title15">%7-&gt;%7</title>
    <path
       style="fill:none;stroke:#000000;stroke-width:2"
       inkscape:connector-curvature="0"
       id="path17"
       d="m 170.5031,-316.9719 c -30.7186,13.9421 -79.933,40.1225 -112.09,59.2088" />
    <polygon
       style="fill:#000000;stroke:#000000;stroke-width:2"
       id="polygon19"
       points="56.5809,-260.7455 60.1959,-254.7511 49.825,-252.584 " />
  </g>
  <g
     class="edge"
     id="edge3"
     transform="translate(4,358.5802)">
    <title
       id="title22">%11-&gt;%11</title>
    <path
       style="fill:none;stroke:#000000;stroke-width:2"
       inkscape:connector-curvature="0"
       id="path24"
       d="m 199.9788,-298.5618 c 5.2176,11.7771 12.8343,25.4106 20.7109,37.0459" />
    <polygon
       style="fill:#000000;stroke:#000000;stroke-width:2"
       id="polygon26"
       points="218.0644,-259.17 223.7583,-263.2418 226.7282,-253.0718 " />
  </g>
  <g
     class="edge"
     id="edge4"
     transform="translate(4,358.5802)">
    <title
       id="title29">%15-&gt;%15</title>
    <path
       style="fill:none;stroke:#000000;stroke-width:2"
       inkscape:connector-curvature="0"
       id="path31"
       d="m 222.8667,-315.5131 c 23.3951,9.4338 55.2146,25.8511 71.0808,52.828 33.2994,56.618 15.1017,83.8652 0,147.7901 -2.1152,8.9538 -5.6875,18.0826 -9.2593,26.5347" />
    <polygon
       style="fill:#000000;stroke:#000000;stroke-width:2"
       id="polygon33"
       points="281.4631,-89.7202 287.8952,-86.9581 280.7334,-79.1505 " />
  </g>
  <g
     class="edge"
     id="edge5"
     transform="translate(4,358.5802)">
    <title
       id="title36">%19-&gt;%19</title>
    <path
       style="fill:none;stroke:#000000;stroke-width:2"
       inkscape:connector-curvature="0"
       id="path38"
       d="m 181.787,-302.6497 c -20.9237,47.8502 -53.5084,155.5314 -65.1182,213.3221" />
    <polygon
       style="fill:#000000;stroke:#000000;stroke-width:2"
       id="polygon40"
       points="113.1621,-89.6178 120.0414,-88.3234 114.7526,-79.1431 " />
  </g>
  <g
     class="edge"
     id="edge6"
     transform="translate(4,358.5802)">
    <title
       id="title43">%3-&gt;%3</title>
    <path
       style="fill:none;stroke:#000000;stroke-width:2"
       inkscape:connector-curvature="0"
       id="path45"
       d="m 54.3086,-244.3605 c 30.7787,-13.9624 80.1986,-40.2555 112.3801,-59.3693" />
    <polygon
       style="fill:#000000;stroke:#000000;stroke-width:2"
       id="polygon47"
       points="168.5257,-300.7505 164.9086,-306.7435 175.2786,-308.9144 " />
  </g>
  <g
     class="edge"
     id="edge7"
     transform="translate(4,358.5802)">
    <title
       id="title50">%7-&gt;%7</title>
    <path
       style="fill:none;stroke:#000000;stroke-width:2"
       inkscape:connector-curvature="0"
       id="path52"
       d="m 52.2245,-249.2396 c 19.5204,-5.8007 39.6705,-0.9668 39.6705,14.502 0,12.8101 -13.8187,18.3269 -29.655,16.5505" />
    <polygon
       style="fill:#000000;stroke:#000000;stroke-width:2"
       id="polygon54"
       points="62.723,-221.6607 61.3203,-214.8027 52.2245,-220.2356 " />
  </g>
  <g
     class="edge"
     id="edge8"
     transform="translate(4,358.5802)">
    <title
       id="title57">%27-&gt;%27</title>
    <path
       style="fill:none;stroke:#000000;stroke-width:2"
       inkscape:connector-curvature="0"
       id="path59"
       d="m 15.7008,-209.1397 c -1.2578,9.5593 -1.5688,20.5913 -0.9331,30.879" />
    <polygon
       style="fill:#000000;stroke:#000000;stroke-width:2"
       id="polygon61"
       points="11.2837,-177.925 18.252,-178.5907 15.7189,-168.3032 " />
  </g>
  <g
     class="edge"
     id="edge12"
     transform="translate(4,358.5802)">
    <title
       id="title64">%3-&gt;%3</title>
    <path
       style="fill:none;stroke:#000000;stroke-width:2"
       inkscape:connector-curvature="0"
       id="path66"
       d="m 244.9508,-262.7303 c -5.1812,-11.7107 -12.7426,-25.268 -20.5765,-36.8741" />
    <polygon
       style="fill:#000000;stroke:#000000;stroke-width:2"
       id="polygon68"
       points="227.0192,-301.9238 221.3186,-297.8614 218.3654,-308.0363 " />
  </g>
  <g
     class="edge"
     id="edge13"
     transform="translate(4,358.5802)">
    <title
       id="title71">%11-&gt;%11</title>
    <path
       style="fill:none;stroke:#000000;stroke-width:2"
       inkscape:connector-curvature="0"
       id="path73"
       d="m 272.2245,-249.2396 c 19.5204,-5.8007 39.6705,-0.9668 39.6705,14.502 0,12.8101 -13.8187,18.3269 -29.655,16.5505" />
    <polygon
       style="fill:#000000;stroke:#000000;stroke-width:2"
       id="polygon75"
       points="282.723,-221.6607 281.3203,-214.8027 272.2245,-220.2356 " />
  </g>
  <g
     class="edge"
     id="edge14"
     transform="translate(4,358.5802)">
    <title
       id="title78">%41-&gt;%41</title>
    <path
       style="fill:none;stroke:#000000;stroke-width:2"
       inkscape:connector-curvature="0"
       id="path80"
       d="m 235.7008,-209.1397 c -1.2578,9.5593 -1.5688,20.5913 -0.9331,30.879" />
    <polygon
       style="fill:#000000;stroke:#000000;stroke-width:2"
       id="polygon82"
       points="231.2837,-177.925 238.252,-178.5907 235.7189,-168.3032 " />
  </g>
  <g
     class="edge"
     id="edge18"
     transform="translate(4,358.5802)">
    <title
       id="title85">%3-&gt;%3</title>
    <path
       style="fill:none;stroke:#000000;stroke-width:2"
       inkscape:connector-curvature="0"
       id="path87"
       d="m 304.0401,-65.4379 c 11.3756,-12.4945 21.6261,-31.3343 25.9074,-49.4571 15.1017,-63.9249 33.2994,-91.1721 0,-147.7901 -19.3329,-32.8712 -62.352,-50.0642 -94.9369,-58.0487" />
    <polygon
       style="fill:#000000;stroke:#000000;stroke-width:2"
       id="polygon89"
       points="235.3641,-324.2413 233.8346,-317.4104 224.841,-323.0108 " />
  </g>
  <g
     class="edge"
     id="edge20"
     transform="translate(4,358.5802)">
    <title
       id="title92">%15-&gt;%15</title>
    <path
       style="fill:none;stroke:#000000;stroke-width:2"
       inkscape:connector-curvature="0"
       id="path94"
       d="m 304.2245,-65.4495 c 19.5204,-5.8008 39.6705,-0.9668 39.6705,14.502 0,12.81 -13.8187,18.3269 -29.655,16.5505" />
    <polygon
       style="fill:#000000;stroke:#000000;stroke-width:2"
       id="polygon96"
       points="314.723,-37.8706 313.3203,-31.0126 304.2245,-36.4456 " />
  </g>
  <g
     class="edge"
     id="edge19"
     transform="translate(4,358.5802)">
    <title
       id="title99">%41-&gt;%41</title>
    <path
       style="fill:none;stroke:#000000;stroke-width:2"
       inkscape:connector-curvature="0"
       id="path101"
       d="m 282.7164,-79.034 c -2.5309,-10.7065 -6.7263,-22.9453 -11.5783,-33.8216" />
    <polygon
       style="fill:#000000;stroke:#000000;stroke-width:2"
       id="polygon103"
       points="274.2285,-114.5048 267.924,-111.4628 266.7305,-121.9902 " />
  </g>
  <g
     class="edge"
     id="edge21"
     transform="translate(4,358.5802)">
    <title
       id="title106">%3-&gt;%3</title>
    <path
       style="fill:none;stroke:#000000;stroke-width:2"
       inkscape:connector-curvature="0"
       id="path108"
       d="m 129.9642,-74.6022 c 20.99,-47.8483 53.8508,-156.4714 65.3814,-214.2465" />
    <polygon
       style="fill:#000000;stroke:#000000;stroke-width:2"
       id="polygon110"
       points="198.7864,-288.2083 191.9058,-289.4953 197.1847,-298.6813 " />
  </g>
  <g
     class="edge"
     id="edge23"
     transform="translate(4,358.5802)">
    <title
       id="title113">%19-&gt;%19</title>
    <path
       style="fill:none;stroke:#000000;stroke-width:2"
       inkscape:connector-curvature="0"
       id="path115"
       d="m 139.2245,-65.4495 c 19.5204,-5.8008 39.6705,-0.9668 39.6705,14.502 0,12.81 -13.8187,18.3269 -29.655,16.5505" />
    <polygon
       style="fill:#000000;stroke:#000000;stroke-width:2"
       id="polygon117"
       points="149.723,-37.8706 148.3203,-31.0126 139.2245,-36.4456 " />
  </g>
  <g
     class="edge"
     id="edge22"
     transform="translate(4,358.5802)">
    <title
       id="title120">%27-&gt;%27</title>
    <path
       style="fill:none;stroke:#000000;stroke-width:2"
       inkscape:connector-curvature="0"
       id="path122"
       d="M 103.0454,-76.4405 C 91.5182,-90.5968 74.8288,-108.0077 59.8165,-121.4491" />
    <polygon
       style="fill:#000000;stroke:#000000;stroke-width:2"
       id="polygon124"
       points="62.0076,-124.1816 57.4274,-118.8881 52.1552,-128.078 " />
  </g>
  <g
     class="edge"
     id="edge9"
     transform="translate(4,358.5802)">
    <title
       id="title127">%7-&gt;%7</title>
    <path
       style="fill:none;stroke:#000000;stroke-width:2"
       inkscape:connector-curvature="0"
       id="path129"
       d="m 40.1761,-168.3032 c 1.2669,-9.5451 1.587,-20.5736 0.9604,-30.8684" />
    <polygon
       style="fill:#000000;stroke:#000000;stroke-width:2"
       id="polygon131"
       points="44.6198,-199.5135 37.6509,-198.8547 40.1943,-209.1397 " />
  </g>
  <g
     class="edge"
     id="edge11"
     transform="translate(4,358.5802)">
    <title
       id="title134">%19-&gt;%19</title>
    <path
       style="fill:none;stroke:#000000;stroke-width:2"
       inkscape:connector-curvature="0"
       id="path136"
       d="m 39.9351,-117.2447 c 11.5756,14.2005 28.317,31.6506 43.344,45.0832" />
    <polygon
       style="fill:#000000;stroke:#000000;stroke-width:2"
       id="polygon138"
       points="81.0884,-69.4289 85.6636,-74.7268 90.9445,-65.5419 " />
  </g>
  <g
     class="edge"
     id="edge10"
     transform="translate(4,358.5802)">
    <title
       id="title141">%27-&gt;%27</title>
    <path
       style="fill:none;stroke:#000000;stroke-width:2"
       inkscape:connector-curvature="0"
       id="path143"
       d="m 52.2245,-157.3445 c 19.5204,-5.8008 39.6705,-0.9668 39.6705,14.5019 0,12.8101 -13.8187,18.3269 -29.655,16.5505" />
    <polygon
       style="fill:#000000;stroke:#000000;stroke-width:2"
       id="polygon145"
       points="62.723,-129.7657 61.3203,-122.9076 52.2245,-128.3406 " />
  </g>
  <g
     class="edge"
     id="edge15"
     transform="translate(4,358.5802)">
    <title
       id="title148">%11-&gt;%11</title>
    <path
       style="fill:none;stroke:#000000;stroke-width:2"
       inkscape:connector-curvature="0"
       id="path150"
       d="m 260.1761,-168.3032 c 1.2669,-9.5451 1.587,-20.5736 0.9604,-30.8684" />
    <polygon
       style="fill:#000000;stroke:#000000;stroke-width:2"
       id="polygon152"
       points="264.6198,-199.5135 257.6509,-198.8547 260.1943,-209.1397 " />
  </g>
  <g
     class="edge"
     id="edge17"
     transform="translate(4,358.5802)">
    <title
       id="title155">%15-&gt;%15</title>
    <path
       style="fill:none;stroke:#000000;stroke-width:2"
       inkscape:connector-curvature="0"
       id="path157"
       d="m 245.175,-114.7717 c 2.527,10.6959 6.7164,22.9229 11.5626,33.7937" />
    <polygon
       style="fill:#000000;stroke:#000000;stroke-width:2"
       id="polygon159"
       points="253.6444,-79.3343 259.9498,-82.3744 261.1401,-71.8466 " />
  </g>
  <g
     class="edge"
     id="edge16"
     transform="translate(4,358.5802)">
    <title
       id="title162">%41-&gt;%41</title>
    <path
       style="fill:none;stroke:#000000;stroke-width:2"
       inkscape:connector-curvature="0"
       id="path164"
       d="m 272.2245,-157.3445 c 19.5204,-5.8008 39.6705,-0.9668 39.6705,14.5019 0,12.8101 -13.8187,18.3269 -29.655,16.5505" />
    <polygon
       style="fill:#000000;stroke:#000000;stroke-width:2"
       id="polygon166"
       points="282.723,-129.7657 281.3203,-122.9076 272.2245,-128.3406 " />
  </g>
  <circle
     cx="200.94749"
     cy="31.947601"
     id="ellipse171"
     r="27.8951"
     style="fill:#ffffff;stroke:#000000" />
  <text
     x="200.94749"
     y="35.647614"
     font-size="14.00"
     id="text173"
     style="font-size:14px;font-family:Times, serif;text-anchor:middle;fill:#000000">$(\emptyset,\emptyset)$</text>
  <circle
     cx="31.9475"
     cy="123.84261"
     id="ellipse178"
     r="27.8951"
     style="fill:#ffffff;stroke:#000000" />
  <text
     x="31.9475"
     y="127.5426"
     font-size="14.00"
     id="text180"
     style="font-size:13.99950796px;font-family:Times, serif;text-anchor:middle;fill:#000000;-inkscape-font-specification:'Times, serif, Normal';font-weight:normal;font-style:normal;font-stretch:normal;font-variant:normal;text-align:center;writing-mode:lr;font-variant-ligatures:normal;font-variant-caps:normal;font-variant-numeric:normal;font-feature-settings:normal;">
    <tspan
       sodipodi:role="line"
       id="tspan1973">$(1,\emptyset)$</tspan>
  </text>
  <circle
     cx="251.94749"
     cy="123.84261"
     id="ellipse185"
     r="27.8951"
     style="fill:#ffffff;stroke:#000000" />
  <text
     x="251.94749"
     y="127.5426"
     font-size="14.00"
     id="text187"
     style="font-size:13.99950796px;font-family:Times, serif;text-anchor:middle;fill:#000000;-inkscape-font-specification:'Times, serif, Normal';font-weight:normal;font-style:normal;font-stretch:normal;font-variant:normal;text-align:center;writing-mode:lr;font-variant-ligatures:normal;font-variant-caps:normal;font-variant-numeric:normal;font-feature-settings:normal;">
    <tspan
       sodipodi:role="line"
       id="tspan1975">$(2,\emptyset)$</tspan>
  </text>
  <circle
     cx="283.94751"
     cy="307.63269"
     id="ellipse192"
     r="27.8951"
     style="fill:#ffffff;stroke:#000000" />
  <text
     x="283.94751"
     y="311.3327"
     font-size="14.00"
     id="text194"
     style="font-size:14px;font-family:Times, serif;text-anchor:middle;fill:#000000">$(\emptyset,1)$</text>
  <circle
     cx="118.9475"
     cy="307.63269"
     id="ellipse199"
     r="27.8951"
     style="fill:#ffffff;stroke:#000000" />
  <text
     x="118.9475"
     y="311.3327"
     font-size="14.00"
     id="text201"
     style="font-size:14px;font-family:Times, serif;text-anchor:middle;fill:#000000">$(\emptyset,2)$</text>
  <circle
     cx="31.9475"
     cy="215.73759"
     id="ellipse206"
     r="27.8951"
     style="fill:#ffffff;stroke:#000000" />
  <text
     x="31.9475"
     y="219.43761"
     font-size="14.00"
     id="text208"
     style="font-size:14px;font-family:Times, serif;text-anchor:middle;fill:#000000">$(1,2)$</text>
  <circle
     cx="251.94749"
     cy="215.73759"
     id="ellipse213"
     r="27.8951"
     style="fill:#ffffff;stroke:#000000" />
  <text
     x="251.94749"
     y="219.43761"
     font-size="14.00"
     id="text215"
     style="font-size:14px;font-family:Times, serif;text-anchor:middle;fill:#000000">$(2,1)$</text>
</svg>
