<?xml version="1.0" encoding="UTF-8" standalone="no"?>
<!-- Generated by graphviz version 2.40.1 (20161225.0304)
 -->

<!-- Title: graph Pages: 1 -->

<svg
   xmlns:dc="http://purl.org/dc/elements/1.1/"
   xmlns:cc="http://creativecommons.org/ns#"
   xmlns:rdf="http://www.w3.org/1999/02/22-rdf-syntax-ns#"
   xmlns:svg="http://www.w3.org/2000/svg"
   xmlns="http://www.w3.org/2000/svg"
   xmlns:sodipodi="http://sodipodi.sourceforge.net/DTD/sodipodi-0.dtd"
   xmlns:inkscape="http://www.inkscape.org/namespaces/inkscape"
   width="1084pt"
   height="357pt"
   viewBox="0.00 0.00 1084.00 356.59"
   version="1.1"
   id="svg639"
   sodipodi:docname="waypoint-graph.svg"
   inkscape:version="0.92.3 (2405546, 2018-03-11)">
  <metadata
     id="metadata645">
    <rdf:RDF>
      <cc:Work
         rdf:about="">
        <dc:format>image/svg+xml</dc:format>
        <dc:type
           rdf:resource="http://purl.org/dc/dcmitype/StillImage" />
        <dc:title></dc:title>
      </cc:Work>
    </rdf:RDF>
  </metadata>
  <defs
     id="defs643" />
  <sodipodi:namedview
     pagecolor="#ffffff"
     bordercolor="#666666"
     borderopacity="1"
     objecttolerance="10"
     gridtolerance="10"
     guidetolerance="10"
     inkscape:pageopacity="0"
     inkscape:pageshadow="2"
     inkscape:window-width="1920"
     inkscape:window-height="1025"
     id="namedview641"
     showgrid="false"
     inkscape:zoom="1.6267874"
     inkscape:cx="1137.3555"
     inkscape:cy="232.86556"
     inkscape:window-x="0"
     inkscape:window-y="27"
     inkscape:window-maximized="1"
     inkscape:current-layer="svg639" />
  <polygon
     style="fill:#ffffff"
     id="polygon4"
     points="1080,-352.5871 1080,4 -4,4 -4,-352.5871 "
     stroke="transparent"
     transform="translate(4,352.5871)" />
  <g
     class="edge"
     id="edge1"
     transform="translate(4,352.5871)">
    <title
       id="title8">%3-&gt;%3</title>
    <path
       style="fill:none;stroke:#000000;stroke-width:2"
       inkscape:connector-curvature="0"
       id="path10"
       d="m 575.1361,-327.9437 c 20.1709,-3.6481 39.2607,1.603 39.2607,15.7534 0,11.7183 -13.0916,17.3335 -29.0473,16.8457" />
    <polygon
       style="fill:#000000;stroke:#000000;stroke-width:2"
       id="polygon12"
       points="585.4516,-298.8535 584.7071,-291.8932 575.1361,-296.4369 " />
  </g>
  <g
     class="edge"
     id="edge2"
     transform="translate(4,352.5871)">
    <title
       id="title15">%7-&gt;%7</title>
    <path
       style="fill:none;stroke:#000000;stroke-dasharray:5, 2"
       inkscape:connector-curvature="0"
       id="path17"
       d="m 506.9893,-301.1059 c -28.977,13.4851 -65.5615,36.6562 -87.3064,54.4824" />
    <polygon
       style="fill:#000000;stroke:#000000"
       id="polygon19"
       points="417.1239,-249.0372 421.7091,-243.748 411.8604,-239.8423 " />
  </g>
  <g
     class="edge"
     id="edge4"
     transform="translate(4,352.5871)">
    <title
       id="title29">%13-&gt;%13</title>
    <path
       style="fill:none;stroke:#000000;stroke-dasharray:5, 2"
       inkscape:connector-curvature="0"
       id="path31"
       d="m 533.22,-276.7226 c 5.1956,13.6643 14.4434,28.5741 25.094,39.4075" />
    <polygon
       style="fill:#000000;stroke:#000000"
       id="polygon33"
       points="556.0972,-234.6019 560.7704,-239.8136 565.8791,-230.5317 " />
  </g>
  <g
     class="edge"
     id="edge6"
     transform="translate(4,352.5871)">
    <title
       id="title43">%19-&gt;%19</title>
    <path
       style="fill:none;stroke:#000000;stroke-dasharray:5, 2"
       inkscape:connector-curvature="0"
       id="path45"
       d="m 561.9968,-281.5861 c 22.8357,17.4261 56.4161,38.0945 82.8152,50.0018" />
    <polygon
       style="fill:#000000;stroke:#000000"
       id="polygon47"
       points="643.6067,-228.2939 646.3371,-234.7394 654.1798,-227.6161 " />
  </g>
  <g
     class="edge"
     id="edge8"
     transform="translate(4,352.5871)">
    <title
       id="title57">%25-&gt;%25</title>
    <path
       style="fill:none;stroke:#000000;stroke-dasharray:5, 2"
       inkscape:connector-curvature="0"
       id="path59"
       d="m 510.3051,-293.46 c -11.223,12.5278 -20.5024,29.2443 -24.469,43.3813" />
    <polygon
       style="fill:#000000;stroke:#000000"
       id="polygon61"
       points="482.3271,-250.3612 489.2034,-249.0515 483.8942,-239.883 " />
  </g>
  <g
     class="edge"
     id="edge15"
     transform="translate(4,352.5871)">
    <title
       id="title71">%3-&gt;%3</title>
    <path
       style="fill:none;stroke:#000000;stroke-dasharray:5, 2"
       inkscape:connector-curvature="0"
       id="path73"
       d="m 429.8202,-227.6161 c 24.5786,-9.6584 58.7053,-29.7323 83.9782,-47.8997" />
    <polygon
       style="fill:#000000;stroke:#000000"
       id="polygon75"
       points="516.0458,-272.8248 511.8824,-278.4521 522.0032,-281.5861 " />
  </g>
  <g
     class="edge"
     id="edge16"
     transform="translate(4,352.5871)">
    <title
       id="title78">%49-&gt;%49</title>
    <path
       style="fill:none;stroke:#000000;stroke-dasharray:5, 2"
       inkscape:connector-curvature="0"
       id="path80"
       d="m 381.0865,-220.0688 c -72.2761,5.9164 -269.2606,26.4548 -327.0865,52.2753 -6.3823,2.8498 -12.6188,6.8383 -17.9562,11.1362" />
    <polygon
       style="fill:#000000;stroke:#000000"
       id="polygon82"
       points="33.5256,-159.0975 38.2477,-153.93 28.5046,-149.768 " />
  </g>
  <g
     class="edge"
     id="edge31"
     transform="translate(4,352.5871)">
    <title
       id="title85">%3-&gt;%3</title>
    <path
       style="fill:none;stroke:#000000;stroke-dasharray:5, 2"
       inkscape:connector-curvature="0"
       id="path87"
       d="m 600.1058,-239.883 c -1.1003,-13.1105 -9.1197,-31.0471 -20.0587,-45.7756" />
    <polygon
       style="fill:#000000;stroke:#000000"
       id="polygon89"
       points="582.7231,-287.9154 577.2949,-283.4955 573.6949,-293.46 " />
  </g>
  <g
     class="edge"
     id="edge32"
     transform="translate(4,352.5871)">
    <title
       id="title92">%93-&gt;%93</title>
    <path
       style="fill:none;stroke:#000000;stroke-dasharray:5, 2"
       inkscape:connector-curvature="0"
       id="path94"
       d="m 575.9027,-203.5004 c -2.5543,12.4977 -3.072,29.3105 -1.553,43.5573" />
    <polygon
       style="fill:#000000;stroke:#000000"
       id="polygon96"
       points="570.9488,-159.0251 577.8697,-160.0744 575.9083,-149.6627 " />
  </g>
  <g
     class="edge"
     id="edge47"
     transform="translate(4,352.5871)">
    <title
       id="title99">%3-&gt;%3</title>
    <path
       style="fill:none;stroke:#000000;stroke-dasharray:5, 2"
       inkscape:connector-curvature="0"
       id="path101"
       d="m 672.1396,-239.8423 c -17.9488,-16.6423 -54.838,-41.0865 -86.0692,-56.8613" />
    <polygon
       style="fill:#000000;stroke:#000000"
       id="polygon103"
       points="587.5348,-299.8834 584.4754,-293.5873 577.0107,-301.1059 " />
  </g>
  <g
     class="edge"
     id="edge48"
     transform="translate(4,352.5871)">
    <title
       id="title106">%135-&gt;%135</title>
    <path
       style="fill:none;stroke:#000000;stroke-dasharray:5, 2"
       inkscape:connector-curvature="0"
       id="path108"
       d="m 701.5861,-218.3837 c 64.4067,7.619 232.3129,27.2059 284.4139,50.5902 11.7181,5.2593 22.9536,14.3412 33.5078,22.1168" />
    <polygon
       style="fill:#000000;stroke:#000000"
       id="polygon110"
       points="1017.6315,-142.7172 1021.6632,-148.4396 1027.8222,-139.8188 " />
  </g>
  <g
     class="edge"
     id="edge60"
     transform="translate(4,352.5871)">
    <title
       id="title113">%3-&gt;%3</title>
    <path
       style="fill:none;stroke:#000000;stroke-dasharray:5, 2"
       inkscape:connector-curvature="0"
       id="path115"
       d="m 518.1209,-230.5317 c 11.2643,-8.752 21.7218,-22.9109 28.6461,-37" />
    <polygon
       style="fill:#000000;stroke:#000000"
       id="polygon117"
       points="549.986,-266.1575 543.5709,-268.9586 550.78,-276.7226 " />
  </g>
  <g
     class="edge"
     id="edge61"
     transform="translate(4,352.5871)">
    <title
       id="title120">%167-&gt;%167</title>
    <path
       style="fill:none;stroke:#000000;stroke-dasharray:5, 2"
       inkscape:connector-curvature="0"
       id="path122"
       d="m 485.9027,-203.5004 c -2.5543,12.4977 -3.072,29.3105 -1.553,43.5573" />
    <polygon
       style="fill:#000000;stroke:#000000"
       id="polygon124"
       points="480.9488,-159.0251 487.8697,-160.0744 485.9083,-149.6627 " />
  </g>
  <g
     class="edge"
     id="edge10"
     transform="translate(4,352.5871)">
    <title
       id="title127">%31-&gt;%31</title>
    <path
       style="fill:none;stroke:#000000;stroke-width:2"
       inkscape:connector-curvature="0"
       id="path129"
       d="m 159.1361,-147.1501 c 20.1709,-3.6482 39.2607,1.6029 39.2607,15.7533 0,11.7183 -13.0916,17.3336 -29.0473,16.8458" />
    <polygon
       style="fill:#000000;stroke:#000000;stroke-width:2"
       id="polygon131"
       points="169.4516,-118.06 168.7071,-111.0997 159.1361,-115.6434 " />
  </g>
  <g
     class="edge"
     id="edge11"
     transform="translate(4,352.5871)">
    <title
       id="title134">%35-&gt;%35</title>
    <path
       style="fill:none;stroke:#000000;stroke-dasharray:5, 2"
       inkscape:connector-curvature="0"
       id="path136"
       d="m 93.949,-113.9674 c -12.851,12.6331 -24.1712,29.9917 -29.5825,44.6086" />
    <polygon
       style="fill:#000000;stroke:#000000"
       id="polygon138"
       points="60.8775,-69.8813 67.6149,-67.9822 61.5332,-59.3067 " />
  </g>
  <g
     class="edge"
     id="edge13"
     transform="translate(4,352.5871)">
    <title
       id="title148">%41-&gt;%41</title>
    <path
       style="fill:none;stroke:#000000;stroke-dasharray:5, 2"
       inkscape:connector-curvature="0"
       id="path150"
       d="m 113.7862,-96.9638 c 3.8002,13.6509 11.6288,28.6929 21.2817,39.7413" />
    <polygon
       style="fill:#000000;stroke:#000000"
       id="polygon152"
       points="132.8237,-54.5188 137.7538,-59.4881 142.3877,-49.9604 " />
  </g>
  <g
     class="edge"
     id="edge19"
     transform="translate(4,352.5871)">
    <title
       id="title162">%31-&gt;%31</title>
    <path
       style="fill:none;stroke:#000000;stroke-dasharray:5, 2"
       inkscape:connector-curvature="0"
       id="path164"
       d="m 94.1531,-49.2066 c 12.0679,-8.5398 23.8727,-22.6145 32.1895,-36.724" />
    <polygon
       style="fill:#000000;stroke:#000000"
       id="polygon166"
       points="129.6433,-84.6809 123.4703,-87.9816 131.272,-95.1498 " />
  </g>
  <g
     class="edge"
     id="edge20"
     transform="translate(4,352.5871)">
    <title
       id="title169">%49-&gt;%49</title>
    <path
       style="fill:none;stroke:#000000;stroke-dasharray:5, 2"
       inkscape:connector-curvature="0"
       id="path171"
       d="M 74.804,-59.2421 C 70.4171,-73.6801 60.3645,-93.9003 50.0603,-109.2635" />
    <polygon
       style="fill:#000000;stroke:#000000"
       id="polygon173"
       points="52.6906,-111.6001 47.0113,-107.508 44.0051,-117.6674 " />
  </g>
  <g
     class="edge"
     id="edge24"
     transform="translate(4,352.5871)">
    <title
       id="title176">%31-&gt;%31</title>
    <path
       style="fill:none;stroke:#000000;stroke-dasharray:5, 2"
       inkscape:connector-curvature="0"
       id="path178"
       d="m 177.6684,-57.5473 c 0.5853,-12.7845 -5.5264,-30.7725 -14.9913,-45.7945" />
    <polygon
       style="fill:#000000;stroke:#000000"
       id="polygon180"
       points="165.3573,-105.6151 159.6312,-101.5887 156.7421,-111.782 " />
  </g>
  <g
     class="edge"
     id="edge25"
     transform="translate(4,352.5871)">
    <title
       id="title183">%61-&gt;%61</title>
    <path
       style="fill:none;stroke:#000000;stroke-dasharray:5, 2"
       inkscape:connector-curvature="0"
       id="path185"
       d="m 182.3786,-51.4193 c 13.4209,-10.0148 30.5859,-25.785 44.8977,-40.6842" />
    <polygon
       style="fill:#000000;stroke:#000000"
       id="polygon187"
       points="230.1847,-90.0888 225.0752,-94.8736 234.4654,-99.7804 " />
  </g>
  <g
     class="edge"
     id="edge17"
     transform="translate(4,352.5871)">
    <title
       id="title190">%7-&gt;%7</title>
    <path
       style="fill:none;stroke:#000000;stroke-dasharray:5, 2"
       inkscape:connector-curvature="0"
       id="path192"
       d="m 48.1727,-139.8303 c 12.8917,-8.5142 26.9639,-21.3264 41.8273,-27.9632 51.0137,-22.7787 210.3301,-41.4465 282.1406,-49.5908" />
    <polygon
       style="fill:#000000;stroke:#000000"
       id="polygon194"
       points="372.5344,-213.9065 371.7472,-220.8621 382.0773,-218.5088 " />
  </g>
  <g
     class="edge"
     id="edge18"
     transform="translate(4,352.5871)">
    <title
       id="title197">%35-&gt;%35</title>
    <path
       style="fill:none;stroke:#000000;stroke-dasharray:5, 2"
       inkscape:connector-curvature="0"
       id="path199"
       d="m 25.2115,-113.1036 c 4.4121,14.4904 14.5139,34.7816 24.8477,50.1483" />
    <polygon
       style="fill:#000000;stroke:#000000"
       id="polygon201"
       points="47.4345,-60.6119 53.1076,-64.7126 56.1292,-54.5578 " />
  </g>
  <g
     class="edge"
     id="edge22"
     transform="translate(4,352.5871)">
    <title
       id="title204">%41-&gt;%41</title>
    <path
       style="fill:none;stroke:#000000;stroke-dasharray:5, 2"
       inkscape:connector-curvature="0"
       id="path206"
       d="m 222.1145,-111.782 c -15.5241,13.109 -33.171,30.4992 -45.5644,44.7616" />
    <polygon
       style="fill:#000000;stroke:#000000"
       id="polygon208"
       points="173.6174,-68.9676 179.0002,-64.4926 169.9159,-59.0403 " />
  </g>
  <g
     class="edge"
     id="edge21"
     transform="translate(4,352.5871)">
    <title
       id="title211">%61-&gt;%61</title>
    <path
       style="fill:none;stroke:#000000;stroke-width:2"
       inkscape:connector-curvature="0"
       id="path213"
       d="m 286.1361,-147.1501 c 20.1709,-3.6482 39.2607,1.6029 39.2607,15.7533 0,11.7183 -13.0916,17.3336 -29.0473,16.8458" />
    <polygon
       style="fill:#000000;stroke:#000000;stroke-width:2"
       id="polygon215"
       points="296.4516,-118.06 295.7071,-111.0997 286.1361,-115.6434 " />
  </g>
  <g
     class="edge"
     id="edge23"
     transform="translate(4,352.5871)">
    <title
       id="title218">%67-&gt;%67</title>
    <path
       style="fill:none;stroke:#000000;stroke-dasharray:5, 2"
       inkscape:connector-curvature="0"
       id="path220"
       d="m 269.5785,-98.7615 c 11.3281,13.653 25.9275,28.9673 38.7657,40.395" />
    <polygon
       style="fill:#000000;stroke:#000000"
       id="polygon222"
       points="306.1792,-55.6132 310.713,-60.9466 316.0652,-51.803 " />
  </g>
  <g
     class="edge"
     id="edge66"
     transform="translate(4,352.5871)">
    <title
       id="title225">%61-&gt;%61</title>
    <path
       style="fill:none;stroke:#000000;stroke-dasharray:5, 2"
       inkscape:connector-curvature="0"
       id="path227"
       d="m 329.5093,-59.2846 c -8.9444,-12.7302 -24.0667,-29.9405 -38.7668,-44.3551" />
    <polygon
       style="fill:#000000;stroke:#000000"
       id="polygon229"
       points="292.7859,-106.5267 287.9606,-101.4555 283.1287,-110.8843 " />
  </g>
  <g
     class="edge"
     id="edge67"
     transform="translate(4,352.5871)">
    <title
       id="title232">%151-&gt;%151</title>
    <path
       style="fill:none;stroke:#000000;stroke-dasharray:5, 2"
       inkscape:connector-curvature="0"
       id="path234"
       d="m 356.1209,-49.7382 c 11.2643,-8.7519 21.7218,-22.9109 28.6461,-36.9999" />
    <polygon
       style="fill:#000000;stroke:#000000"
       id="polygon236"
       points="387.986,-85.364 381.5709,-88.165 388.78,-95.929 " />
  </g>
  <g
     class="edge"
     id="edge26"
     transform="translate(4,352.5871)">
    <title
       id="title239">%75-&gt;%75</title>
    <path
       style="fill:none;stroke:#000000;stroke-width:2"
       inkscape:connector-curvature="0"
       id="path241"
       d="m 710.8575,-146.6238 c 19.9735,-4.6143 39.6396,0.4614 39.6396,15.227 0,12.2278 -13.4869,17.8103 -29.4663,16.7476" />
    <polygon
       style="fill:#000000;stroke:#000000;stroke-width:2"
       id="polygon243"
       points="721.265,-118.153 720.2303,-111.2299 710.8575,-116.1697 " />
  </g>
  <g
     class="edge"
     id="edge27"
     transform="translate(4,352.5871)">
    <title
       id="title246">%79-&gt;%79</title>
    <path
       style="fill:none;stroke:#000000;stroke-dasharray:5, 2"
       inkscape:connector-curvature="0"
       id="path248"
       d="m 652.704,-116.873 c -14.4722,12.8553 -27.6863,31.9789 -33.8255,47.8103" />
    <polygon
       style="fill:#000000;stroke:#000000"
       id="polygon250"
       points="615.4508,-69.8179 622.1545,-67.8026 615.9237,-59.2336 " />
  </g>
  <g
     class="edge"
     id="edge29"
     transform="translate(4,352.5871)">
    <title
       id="title260">%85-&gt;%85</title>
    <path
       style="fill:none;stroke:#000000;stroke-dasharray:5, 2"
       inkscape:connector-curvature="0"
       id="path262"
       d="m 667.9435,-101.7975 c 2.7877,14.6992 10.8098,31.9071 21.2139,44.2568" />
    <polygon
       style="fill:#000000;stroke:#000000"
       id="polygon264"
       points="686.822,-54.9222 691.8359,-59.807 696.3073,-50.2019 " />
  </g>
  <g
     class="edge"
     id="edge35"
     transform="translate(4,352.5871)">
    <title
       id="title274">%75-&gt;%75</title>
    <path
       style="fill:none;stroke:#000000;stroke-dasharray:5, 2"
       inkscape:connector-curvature="0"
       id="path276"
       d="m 648.2386,-49.1397 c 13.6076,-9.4483 27.0526,-25.7356 35.7566,-41.3369" />
    <polygon
       style="fill:#000000;stroke:#000000"
       id="polygon278"
       points="687.1796,-89.0188 680.9234,-92.159 688.5375,-99.5263 " />
  </g>
  <g
     class="edge"
     id="edge36"
     transform="translate(4,352.5871)">
    <title
       id="title281">%93-&gt;%93</title>
    <path
       style="fill:none;stroke:#000000;stroke-dasharray:5, 2"
       inkscape:connector-curvature="0"
       id="path283"
       d="m 630.0168,-59.2336 c -3.338,-14.063 -11.6896,-33.6155 -20.7023,-48.8213" />
    <polygon
       style="fill:#000000;stroke:#000000"
       id="polygon285"
       points="612.0025,-110.3467 606.1111,-106.5664 603.6563,-116.873 " />
  </g>
  <g
     class="edge"
     id="edge40"
     transform="translate(4,352.5871)">
    <title
       id="title288">%75-&gt;%75</title>
    <path
       style="fill:none;stroke:#000000;stroke-dasharray:5, 2"
       inkscape:connector-curvature="0"
       id="path290"
       d="m 731.9944,-57.0163 c 1.1327,-13.6063 -5.4148,-33.3758 -15.6951,-49.1137" />
    <polygon
       style="fill:#000000;stroke:#000000"
       id="polygon292"
       points="718.9699,-108.4065 713.3284,-104.2624 710.229,-114.3938 " />
  </g>
  <g
     class="edge"
     id="edge41"
     transform="translate(4,352.5871)">
    <title
       id="title295">%105-&gt;%105</title>
    <path
       style="fill:none;stroke:#000000;stroke-dasharray:5, 2"
       inkscape:connector-curvature="0"
       id="path297"
       d="m 736.3457,-51.5695 c 13.1128,-9.9788 29.7442,-25.5746 43.6208,-40.3432" />
    <polygon
       style="fill:#000000;stroke:#000000"
       id="polygon299"
       points="782.7662,-89.7876 777.6038,-94.5152 786.9387,-99.5263 " />
  </g>
  <g
     class="edge"
     id="edge33"
     transform="translate(4,352.5871)">
    <title
       id="title302">%13-&gt;%13</title>
    <path
       style="fill:none;stroke:#000000;stroke-dasharray:5, 2"
       inkscape:connector-curvature="0"
       id="path304"
       d="m 598.0917,-149.6627 c 2.5573,-12.4915 3.078,-29.303 1.5619,-43.5535" />
    <polygon
       style="fill:#000000;stroke:#000000"
       id="polygon306"
       points="603.0543,-194.1367 596.1331,-193.0893 598.0973,-203.5004 " />
  </g>
  <g
     class="edge"
     id="edge34"
     transform="translate(4,352.5871)">
    <title
       id="title309">%79-&gt;%79</title>
    <path
       style="fill:none;stroke:#000000;stroke-dasharray:5, 2"
       inkscape:connector-curvature="0"
       id="path311"
       d="m 583.9973,-113.1036 c 3.357,14.0986 11.7358,33.6886 20.7651,48.8913" />
    <polygon
       style="fill:#000000;stroke:#000000"
       id="polygon313"
       points="602.076,-61.9188 607.9634,-65.7056 610.4294,-55.4017 " />
  </g>
  <g
     class="edge"
     id="edge38"
     transform="translate(4,352.5871)">
    <title
       id="title316">%85-&gt;%85</title>
    <path
       style="fill:none;stroke:#000000;stroke-dasharray:5, 2"
       inkscape:connector-curvature="0"
       id="path318"
       d="m 774.2894,-111.5588 c -15.1135,13.0336 -32.177,30.2272 -44.1795,44.3786" />
    <polygon
       style="fill:#000000;stroke:#000000"
       id="polygon320"
       points="727.262,-69.2253 732.6985,-64.8156 723.6808,-59.254 " />
  </g>
  <g
     class="edge"
     id="edge37"
     transform="translate(4,352.5871)">
    <title
       id="title323">%105-&gt;%105</title>
    <path
       style="fill:none;stroke:#000000;stroke-width:2"
       inkscape:connector-curvature="0"
       id="path325"
       d="m 838.1361,-147.1501 c 20.1709,-3.6482 39.2607,1.6029 39.2607,15.7533 0,11.7183 -13.0916,17.3336 -29.0473,16.8458" />
    <polygon
       style="fill:#000000;stroke:#000000;stroke-width:2"
       id="polygon327"
       points="848.4516,-118.06 847.7071,-111.0997 838.1361,-115.6434 " />
  </g>
  <g
     class="edge"
     id="edge39"
     transform="translate(4,352.5871)">
    <title
       id="title330">%111-&gt;%111</title>
    <path
       style="fill:none;stroke:#000000;stroke-dasharray:5, 2"
       inkscape:connector-curvature="0"
       id="path332"
       d="m 821.5785,-98.7615 c 11.3281,13.653 25.9275,28.9673 38.7657,40.395" />
    <polygon
       style="fill:#000000;stroke:#000000"
       id="polygon334"
       points="858.1792,-55.6132 862.713,-60.9466 868.0652,-51.803 " />
  </g>
  <g
     class="edge"
     id="edge53"
     transform="translate(4,352.5871)">
    <title
       id="title337">%105-&gt;%105</title>
    <path
       style="fill:none;stroke:#000000;stroke-dasharray:5, 2"
       inkscape:connector-curvature="0"
       id="path339"
       d="m 881.5093,-59.2846 c -8.9444,-12.7302 -24.0667,-29.9405 -38.7668,-44.3551" />
    <polygon
       style="fill:#000000;stroke:#000000"
       id="polygon341"
       points="844.7859,-106.5267 839.9606,-101.4555 835.1287,-110.8843 " />
  </g>
  <g
     class="edge"
     id="edge54"
     transform="translate(4,352.5871)">
    <title
       id="title344">%119-&gt;%119</title>
    <path
       style="fill:none;stroke:#000000;stroke-dasharray:5, 2"
       inkscape:connector-curvature="0"
       id="path346"
       d="m 908.1209,-49.7382 c 11.2643,-8.7519 21.7218,-22.9109 28.6461,-36.9999" />
    <polygon
       style="fill:#000000;stroke:#000000"
       id="polygon348"
       points="939.986,-85.364 933.5709,-88.165 940.78,-95.929 " />
  </g>
  <g
     class="edge"
     id="edge45"
     transform="translate(4,352.5871)">
    <title
       id="title351">%111-&gt;%111</title>
    <path
       style="fill:none;stroke:#000000;stroke-dasharray:5, 2"
       inkscape:connector-curvature="0"
       id="path353"
       d="m 900.3051,-112.6665 c -11.223,12.5278 -20.5024,29.2444 -24.469,43.3814" />
    <polygon
       style="fill:#000000;stroke:#000000"
       id="polygon355"
       points="872.3271,-69.5677 879.2034,-68.258 873.8942,-59.0894 " />
  </g>
  <g
     class="edge"
     id="edge42"
     transform="translate(4,352.5871)">
    <title
       id="title365">%119-&gt;%119</title>
    <path
       style="fill:none;stroke:#000000;stroke-width:2"
       inkscape:connector-curvature="0"
       id="path367"
       d="m 965.1361,-147.1501 c 20.1709,-3.6482 39.2607,1.6029 39.2607,15.7533 0,11.7183 -13.0916,17.3336 -29.0473,16.8458" />
    <polygon
       style="fill:#000000;stroke:#000000;stroke-width:2"
       id="polygon369"
       points="975.4516,-118.06 974.7071,-111.0997 965.1361,-115.6434 " />
  </g>
  <g
     class="edge"
     id="edge43"
     transform="translate(4,352.5871)">
    <title
       id="title372">%123-&gt;%123</title>
    <path
       style="fill:none;stroke:#000000;stroke-dasharray:5, 2"
       inkscape:connector-curvature="0"
       id="path374"
       d="m 923.22,-95.929 c 5.1956,13.6642 14.4434,28.574 25.094,39.4074" />
    <polygon
       style="fill:#000000;stroke:#000000"
       id="polygon376"
       points="946.0972,-53.8083 950.7704,-59.02 955.8791,-49.7382 " />
  </g>
  <g
     class="edge"
     id="edge51"
     transform="translate(4,352.5871)">
    <title
       id="title386">%119-&gt;%119</title>
    <path
       style="fill:none;stroke:#000000;stroke-dasharray:5, 2"
       inkscape:connector-curvature="0"
       id="path388"
       d="m 990.1058,-59.0894 c -1.1003,-13.1105 -9.1197,-31.0472 -20.0587,-45.7757" />
    <polygon
       style="fill:#000000;stroke:#000000"
       id="polygon390"
       points="972.7231,-107.1218 967.2949,-102.702 963.6949,-112.6665 " />
  </g>
  <g
     class="edge"
     id="edge52"
     transform="translate(4,352.5871)">
    <title
       id="title393">%135-&gt;%135</title>
    <path
       style="fill:none;stroke:#000000;stroke-dasharray:5, 2"
       inkscape:connector-curvature="0"
       id="path395"
       d="m 995.7052,-52.6645 c 14.488,-13.0448 32.6769,-34.6067 44.3596,-51.8708" />
    <polygon
       style="fill:#000000;stroke:#000000"
       id="polygon397"
       points="1043.1028,-102.7899 1037.2002,-106.5527 1045.527,-113.1036 " />
  </g>
  <g
     class="edge"
     id="edge49"
     transform="translate(4,352.5871)">
    <title
       id="title400">%19-&gt;%19</title>
    <path
       style="fill:none;stroke:#000000;stroke-dasharray:5, 2"
       inkscape:connector-curvature="0"
       id="path402"
       d="m 1047.4868,-149.7487 c -6.3844,-6.6938 -15.7697,-13.6836 -25.4868,-18.0448 -53.7715,-24.1341 -230.8929,-44.2232 -308.7318,-51.2859" />
    <polygon
       style="fill:#000000;stroke:#000000"
       id="polygon404"
       points="713.2359,-222.5957 712.6204,-215.6228 702.9669,-219.9885 " />
  </g>
  <g
     class="edge"
     id="edge50"
     transform="translate(4,352.5871)">
    <title
       id="title407">%123-&gt;%123</title>
    <path
       style="fill:none;stroke:#000000;stroke-dasharray:5, 2"
       inkscape:connector-curvature="0"
       id="path409"
       d="m 1030.5348,-119.948 c -14.5325,13.0271 -32.867,34.7444 -44.6138,52.1074" />
    <polygon
       style="fill:#000000;stroke:#000000"
       id="polygon411"
       points="982.8547,-69.5414 988.7585,-65.7804 980.4338,-59.2268 " />
  </g>
  <g
     class="edge"
     id="edge58"
     transform="translate(4,352.5871)">
    <title
       id="title414">%67-&gt;%67</title>
    <path
       style="fill:none;stroke:#000000;stroke-dasharray:5, 2"
       inkscape:connector-curvature="0"
       id="path416"
       d="m 348.3051,-112.6665 c -11.223,12.5278 -20.5024,29.2444 -24.469,43.3814" />
    <polygon
       style="fill:#000000;stroke:#000000"
       id="polygon418"
       points="320.3271,-69.5677 327.2034,-68.258 321.8942,-59.0894 " />
  </g>
  <g
     class="edge"
     id="edge55"
     transform="translate(4,352.5871)">
    <title
       id="title428">%151-&gt;%151</title>
    <path
       style="fill:none;stroke:#000000;stroke-width:2"
       inkscape:connector-curvature="0"
       id="path430"
       d="m 413.1361,-147.1501 c 20.1709,-3.6482 39.2607,1.6029 39.2607,15.7533 0,11.7183 -13.0916,17.3336 -29.0473,16.8458" />
    <polygon
       style="fill:#000000;stroke:#000000;stroke-width:2"
       id="polygon432"
       points="423.4516,-118.06 422.7071,-111.0997 413.1361,-115.6434 " />
  </g>
  <g
     class="edge"
     id="edge56"
     transform="translate(4,352.5871)">
    <title
       id="title435">%155-&gt;%155</title>
    <path
       style="fill:none;stroke:#000000;stroke-dasharray:5, 2"
       inkscape:connector-curvature="0"
       id="path437"
       d="m 371.22,-95.929 c 5.1956,13.6642 14.4434,28.574 25.094,39.4074" />
    <polygon
       style="fill:#000000;stroke:#000000"
       id="polygon439"
       points="394.0972,-53.8083 398.7704,-59.02 403.8791,-49.7382 " />
  </g>
  <g
     class="edge"
     id="edge64"
     transform="translate(4,352.5871)">
    <title
       id="title449">%151-&gt;%151</title>
    <path
       style="fill:none;stroke:#000000;stroke-dasharray:5, 2"
       inkscape:connector-curvature="0"
       id="path451"
       d="m 438.1058,-59.0894 c -1.1003,-13.1105 -9.1197,-31.0472 -20.0587,-45.7757" />
    <polygon
       style="fill:#000000;stroke:#000000"
       id="polygon453"
       points="420.7231,-107.1218 415.2949,-102.702 411.6949,-112.6665 " />
  </g>
  <g
     class="edge"
     id="edge65"
     transform="translate(4,352.5871)">
    <title
       id="title456">%167-&gt;%167</title>
    <path
       style="fill:none;stroke:#000000;stroke-dasharray:5, 2"
       inkscape:connector-curvature="0"
       id="path458"
       d="m 443.7052,-52.6645 c 14.488,-13.0448 32.6769,-34.6067 44.3596,-51.8708" />
    <polygon
       style="fill:#000000;stroke:#000000"
       id="polygon460"
       points="491.1028,-102.7899 485.2002,-106.5527 493.527,-113.1036 " />
  </g>
  <g
     class="edge"
     id="edge62"
     transform="translate(4,352.5871)">
    <title
       id="title463">%25-&gt;%25</title>
    <path
       style="fill:none;stroke:#000000;stroke-dasharray:5, 2"
       inkscape:connector-curvature="0"
       id="path465"
       d="m 508.0917,-149.6627 c 2.5573,-12.4915 3.078,-29.303 1.5619,-43.5535" />
    <polygon
       style="fill:#000000;stroke:#000000"
       id="polygon467"
       points="513.0543,-194.1367 506.1331,-193.0893 508.0973,-203.5004 " />
  </g>
  <g
     class="edge"
     id="edge63"
     transform="translate(4,352.5871)">
    <title
       id="title470">%155-&gt;%155</title>
    <path
       style="fill:none;stroke:#000000;stroke-dasharray:5, 2"
       inkscape:connector-curvature="0"
       id="path472"
       d="m 478.5348,-119.948 c -14.5325,13.0271 -32.867,34.7444 -44.6138,52.1074" />
    <polygon
       style="fill:#000000;stroke:#000000"
       id="polygon474"
       points="430.8547,-69.5414 436.7585,-65.7804 428.4338,-59.2268 " />
  </g>
  <g
     class="node"
     id="node1"
     transform="translate(4,352.5871)">
    <title
       id="title477">%3</title>
    <circle
       style="fill:#ffffff;stroke:#000000"
       r="36.2938"
       id="ellipse479"
       cy="-312.19031"
       cx="542" />
    <text
       style="font-size:14px;font-family:Times, serif;text-anchor:middle;fill:#000000"
       id="text481"
       font-size="14.00"
       y="-308.4903"
       x="542">$(\emptyset,\emptyset)$</text>
  </g>
  <g
     class="node"
     id="node2"
     transform="translate(4,352.5871)">
    <title
       id="title484">%7</title>
    <polygon
       style="fill:#ffffff;stroke:#000000"
       id="polygon486"
       points="393.5,-239.7935 380,-221.7935 393.5,-203.7935 420.5,-203.7935 434,-221.7935 420.5,-239.7935 " />
    <text
       style="font-size:14px;font-family:Times, serif;text-anchor:middle;fill:#000000"
       id="text488"
       font-size="14.00"
       y="-218.09351"
       x="407"> </text>
  </g>
  <g
     class="node"
     id="node3"
     transform="translate(4,352.5871)">
    <title
       id="title491">%13</title>
    <polygon
       style="fill:#ffffff;stroke:#000000"
       id="polygon493"
       points="573.5,-239.7935 560,-221.7935 573.5,-203.7935 600.5,-203.7935 614,-221.7935 600.5,-239.7935 " />
    <text
       style="font-size:14px;font-family:Times, serif;text-anchor:middle;fill:#000000"
       id="text495"
       font-size="14.00"
       y="-218.09351"
       x="587"> </text>
  </g>
  <g
     class="node"
     id="node4"
     transform="translate(4,352.5871)">
    <title
       id="title498">%19</title>
    <polygon
       style="fill:#ffffff;stroke:#000000"
       id="polygon500"
       points="663.5,-239.7935 650,-221.7935 663.5,-203.7935 690.5,-203.7935 704,-221.7935 690.5,-239.7935 " />
    <text
       style="font-size:14px;font-family:Times, serif;text-anchor:middle;fill:#000000"
       id="text502"
       font-size="14.00"
       y="-218.09351"
       x="677"> </text>
  </g>
  <g
     class="node"
     id="node5"
     transform="translate(4,352.5871)">
    <title
       id="title505">%25</title>
    <polygon
       style="fill:#ffffff;stroke:#000000"
       id="polygon507"
       points="483.5,-239.7935 470,-221.7935 483.5,-203.7935 510.5,-203.7935 524,-221.7935 510.5,-239.7935 " />
    <text
       style="font-size:14px;font-family:Times, serif;text-anchor:middle;fill:#000000"
       id="text509"
       font-size="14.00"
       y="-218.09351"
       x="497"> </text>
  </g>
  <g
     class="node"
     id="node6"
     transform="translate(4,352.5871)">
    <title
       id="title512">%31</title>
    <circle
       style="fill:#ffffff;stroke:#000000"
       r="36.2938"
       id="ellipse514"
       cy="-131.3968"
       cx="126" />
    <text
       style="font-size:14px;font-family:Times, serif;text-anchor:middle;fill:#000000"
       id="text516"
       font-size="14.00"
       y="-127.6968"
       x="126">$(1,\emptyset)$</text>
  </g>
  <g
     class="node"
     id="node7"
     transform="translate(4,352.5871)">
    <title
       id="title519">%35</title>
    <polygon
       style="fill:#ffffff;stroke:#000000"
       id="polygon521"
       points="59.5,-59 46,-41 59.5,-23 86.5,-23 100,-41 86.5,-59 " />
    <text
       style="font-size:14px;font-family:Times, serif;text-anchor:middle;fill:#000000"
       id="text523"
       font-size="14.00"
       y="-37.299999"
       x="73"> </text>
  </g>
  <g
     class="node"
     id="node8"
     transform="translate(4,352.5871)">
    <title
       id="title526">%41</title>
    <polygon
       style="fill:#ffffff;stroke:#000000"
       id="polygon528"
       points="149.5,-59 136,-41 149.5,-23 176.5,-23 190,-41 176.5,-59 " />
    <text
       style="font-size:14px;font-family:Times, serif;text-anchor:middle;fill:#000000"
       id="text530"
       font-size="14.00"
       y="-37.299999"
       x="163"> </text>
  </g>
  <g
     class="node"
     id="node9"
     transform="translate(4,352.5871)">
    <title
       id="title533">%49</title>
    <polygon
       style="fill:#ffffff;stroke:#000000"
       id="polygon535"
       points="13.5,-149.3968 0,-131.3968 13.5,-113.3968 40.5,-113.3968 54,-131.3968 40.5,-149.3968 " />
    <text
       style="font-size:14px;font-family:Times, serif;text-anchor:middle;fill:#000000"
       id="text537"
       font-size="14.00"
       y="-127.6968"
       x="27"> </text>
  </g>
  <g
     class="node"
     id="node10"
     transform="translate(4,352.5871)">
    <title
       id="title540">%61</title>
    <circle
       style="fill:#ffffff;stroke:#000000"
       r="36.2938"
       id="ellipse542"
       cy="-131.3968"
       cx="253" />
    <text
       style="font-size:14px;font-family:Times, serif;text-anchor:middle;fill:#000000"
       id="text544"
       font-size="14.00"
       y="-127.6968"
       x="253">$(1,2)$</text>
  </g>
  <g
     class="node"
     id="node11"
     transform="translate(4,352.5871)">
    <title
       id="title547">%67</title>
    <polygon
       style="fill:#ffffff;stroke:#000000"
       id="polygon549"
       points="321.5,-59 308,-41 321.5,-23 348.5,-23 362,-41 348.5,-59 " />
    <text
       style="font-size:14px;font-family:Times, serif;text-anchor:middle;fill:#000000"
       id="text551"
       font-size="14.00"
       y="-37.299999"
       x="335"> </text>
  </g>
  <circle
     cx="686"
     cy="221.19029"
     id="ellipse556"
     r="32.494202"
     style="fill:#ffffff;stroke:#000000" />
  <text
     x="686"
     y="224.8903"
     font-size="14.00"
     id="text558"
     style="font-size:13.99999961px;font-family:Times, serif;text-anchor:middle;fill:#000000;-inkscape-font-specification:'Times, serif, Normal';font-weight:normal;font-style:normal;font-stretch:normal;font-variant:normal;text-align:center;writing-mode:lr;font-variant-ligatures:normal;font-variant-caps:normal;font-variant-numeric:normal;font-feature-settings:normal;">
    <tspan
       sodipodi:role="line"
       id="tspan1835">$(2,\emptyset)$</tspan>
  </text>
  <g
     class="node"
     id="node13"
     transform="translate(4,352.5871)">
    <title
       id="title561">%79</title>
    <polygon
       style="fill:#ffffff;stroke:#000000"
       id="polygon563"
       points="613.5,-59 600,-41 613.5,-23 640.5,-23 654,-41 640.5,-59 " />
    <text
       style="font-size:14px;font-family:Times, serif;text-anchor:middle;fill:#000000"
       id="text565"
       font-size="14.00"
       y="-37.299999"
       x="627"> </text>
  </g>
  <g
     class="node"
     id="node14"
     transform="translate(4,352.5871)">
    <title
       id="title568">%85</title>
    <polygon
       style="fill:#ffffff;stroke:#000000"
       id="polygon570"
       points="703.5,-59 690,-41 703.5,-23 730.5,-23 744,-41 730.5,-59 " />
    <text
       style="font-size:14px;font-family:Times, serif;text-anchor:middle;fill:#000000"
       id="text572"
       font-size="14.00"
       y="-37.299999"
       x="717"> </text>
  </g>
  <g
     class="node"
     id="node15"
     transform="translate(4,352.5871)">
    <title
       id="title575">%93</title>
    <polygon
       style="fill:#ffffff;stroke:#000000"
       id="polygon577"
       points="573.5,-149.3968 560,-131.3968 573.5,-113.3968 600.5,-113.3968 614,-131.3968 600.5,-149.3968 " />
    <text
       style="font-size:14px;font-family:Times, serif;text-anchor:middle;fill:#000000"
       id="text579"
       font-size="14.00"
       y="-127.6968"
       x="587"> </text>
  </g>
  <g
     class="node"
     id="node16"
     transform="translate(4,352.5871)">
    <title
       id="title582">%105</title>
    <circle
       style="fill:#ffffff;stroke:#000000"
       r="36.2938"
       id="ellipse584"
       cy="-131.3968"
       cx="805" />
    <text
       style="font-size:14px;font-family:Times, serif;text-anchor:middle;fill:#000000"
       id="text586"
       font-size="14.00"
       y="-127.6968"
       x="805">$(2,1)$</text>
  </g>
  <g
     class="node"
     id="node17"
     transform="translate(4,352.5871)">
    <title
       id="title589">%111</title>
    <polygon
       style="fill:#ffffff;stroke:#000000"
       id="polygon591"
       points="873.5,-59 860,-41 873.5,-23 900.5,-23 914,-41 900.5,-59 " />
    <text
       style="font-size:14px;font-family:Times, serif;text-anchor:middle;fill:#000000"
       id="text593"
       font-size="14.00"
       y="-37.299999"
       x="887"> </text>
  </g>
  <g
     class="node"
     id="node18"
     transform="translate(4,352.5871)">
    <title
       id="title596">%119</title>
    <circle
       style="fill:#ffffff;stroke:#000000"
       r="36.2938"
       id="ellipse598"
       cy="-131.3968"
       cx="932" />
    <text
       style="font-size:14px;font-family:Times, serif;text-anchor:middle;fill:#000000"
       id="text600"
       font-size="14.00"
       y="-127.6968"
       x="932">$(\emptyset,1)$</text>
  </g>
  <g
     class="node"
     id="node19"
     transform="translate(4,352.5871)">
    <title
       id="title603">%123</title>
    <polygon
       style="fill:#ffffff;stroke:#000000"
       id="polygon605"
       points="963.5,-59 950,-41 963.5,-23 990.5,-23 1004,-41 990.5,-59 " />
    <text
       style="font-size:14px;font-family:Times, serif;text-anchor:middle;fill:#000000"
       id="text607"
       font-size="14.00"
       y="-37.299999"
       x="977"> </text>
  </g>
  <g
     class="node"
     id="node20"
     transform="translate(4,352.5871)">
    <title
       id="title610">%135</title>
    <polygon
       style="fill:#ffffff;stroke:#000000"
       id="polygon612"
       points="1035.5,-149.3968 1022,-131.3968 1035.5,-113.3968 1062.5,-113.3968 1076,-131.3968 1062.5,-149.3968 " />
    <text
       style="font-size:14px;font-family:Times, serif;text-anchor:middle;fill:#000000"
       id="text614"
       font-size="14.00"
       y="-127.6968"
       x="1049"> </text>
  </g>
  <g
     class="node"
     id="node21"
     transform="translate(4,352.5871)">
    <title
       id="title617">%151</title>
    <circle
       style="fill:#ffffff;stroke:#000000"
       r="36.2938"
       id="ellipse619"
       cy="-131.3968"
       cx="380" />
    <text
       style="font-size:14px;font-family:Times, serif;text-anchor:middle;fill:#000000"
       id="text621"
       font-size="14.00"
       y="-127.6968"
       x="380">$(\emptyset,2)$</text>
  </g>
  <g
     class="node"
     id="node22"
     transform="translate(4,352.5871)">
    <title
       id="title624">%155</title>
    <polygon
       style="fill:#ffffff;stroke:#000000"
       id="polygon626"
       points="411.5,-59 398,-41 411.5,-23 438.5,-23 452,-41 438.5,-59 " />
    <text
       style="font-size:14px;font-family:Times, serif;text-anchor:middle;fill:#000000"
       id="text628"
       font-size="14.00"
       y="-37.299999"
       x="425"> </text>
  </g>
  <g
     class="node"
     id="node23"
     transform="translate(4,352.5871)">
    <title
       id="title631">%167</title>
    <polygon
       style="fill:#ffffff;stroke:#000000"
       id="polygon633"
       points="483.5,-149.3968 470,-131.3968 483.5,-113.3968 510.5,-113.3968 524,-131.3968 510.5,-149.3968 " />
    <text
       style="font-size:14px;font-family:Times, serif;text-anchor:middle;fill:#000000"
       id="text635"
       font-size="14.00"
       y="-127.6968"
       x="497"> </text>
  </g>
</svg>
